<svg xmlns="http://www.w3.org/2000/svg" width="1440" height="900" viewBox="0 0 1440 900" role="img" aria-labelledby="title desc">
  <title id="title">WhyLab causal dashboard overview</title>
  <desc id="desc">A dark product analytics dashboard showing causal lift, confidence, segment diagnostics, and experiment recommendations.</desc>
  <rect width="1440" height="900" fill="#06130f"/>
  <rect x="40" y="36" width="1360" height="828" rx="28" fill="#0b1d17" stroke="#2df49a" stroke-opacity=".28"/>
  <text x="84" y="102" fill="#e9fff5" font-family="Inter, Arial, sans-serif" font-size="34" font-weight="800">WhyLab Causal Decision Console</text>
  <text x="84" y="140" fill="#9ecbb9" font-family="Inter, Arial, sans-serif" font-size="18">Experiment impact, refutation checks, and decision confidence in one review surface</text>
  <rect x="84" y="188" width="360" height="160" rx="18" fill="#102a21" stroke="#64f2ac" stroke-opacity=".2"/>
  <text x="112" y="238" fill="#9ecbb9" font-family="Inter, Arial, sans-serif" font-size="16">Estimated causal lift</text>
  <text x="112" y="302" fill="#64f2ac" font-family="Inter, Arial, sans-serif" font-size="56" font-weight="800">+8.4%</text>
  <text x="302" y="302" fill="#e9fff5" font-family="Inter, Arial, sans-serif" font-size="18">p95 CI</text>
  <rect x="472" y="188" width="420" height="160" rx="18" fill="#102a21" stroke="#64f2ac" stroke-opacity=".2"/>
  <text x="500" y="238" fill="#9ecbb9" font-family="Inter, Arial, sans-serif" font-size="16">Decision verdict</text>
  <text x="500" y="294" fill="#e9fff5" font-family="Inter, Arial, sans-serif" font-size="44" font-weight="800">Ship to 25%</text>
  <rect x="918" y="188" width="434" height="160" rx="18" fill="#102a21" stroke="#64f2ac" stroke-opacity=".2"/>
  <text x="946" y="238" fill="#9ecbb9" font-family="Inter, Arial, sans-serif" font-size="16">Refutation status</text>
  <text x="946" y="294" fill="#e9fff5" font-family="Inter, Arial, sans-serif" font-size="44" font-weight="800">4 / 5 pass</text>
  <rect x="84" y="392" width="770" height="402" rx="18" fill="#071812" stroke="#64f2ac" stroke-opacity=".18"/>
  <text x="116" y="438" fill="#e9fff5" font-family="Inter, Arial, sans-serif" font-size="22" font-weight="700">Segment effect by exposure cohort</text>
  <polyline points="130,720 230,666 330,686 430,584 530,598 630,510 730,536 814,462" fill="none" stroke="#64f2ac" stroke-width="8" stroke-linecap="round"/>
  <polyline points="130,744 230,712 330,726 430,660 530,684 630,612 730,650 814,598" fill="none" stroke="#6ba5ff" stroke-width="5" stroke-linecap="round" opacity=".85"/>
  <g fill="#17392e">
    <rect x="130" y="486" width="684" height="2"/>
    <rect x="130" y="560" width="684" height="2"/>
    <rect x="130" y="634" width="684" height="2"/>
    <rect x="130" y="708" width="684" height="2"/>
  </g>
  <rect x="890" y="392" width="462" height="402" rx="18" fill="#071812" stroke="#64f2ac" stroke-opacity=".18"/>
  <text x="922" y="438" fill="#e9fff5" font-family="Inter, Arial, sans-serif" font-size="22" font-weight="700">Causal review checklist</text>
  <g font-family="Inter, Arial, sans-serif" font-size="18">
    <text x="946" y="506" fill="#e9fff5">✓ Assignment balance verified</text>
    <text x="946" y="562" fill="#e9fff5">✓ Pre-period trend stable</text>
    <text x="946" y="618" fill="#e9fff5">✓ Guardrails within tolerance</text>
    <text x="946" y="674" fill="#e9fff5">✓ Sensitivity check documented</text>
    <text x="946" y="730" fill="#ffcf6b">! Novelty window still open</text>
  </g>
</svg>
